<?xml version="1.0" standalone="no"?>
<!DOCTYPE svg PUBLIC "-//W3C//DTD SVG 20010904//EN"
 "http://www.w3.org/TR/2001/REC-SVG-20010904/DTD/svg10.dtd">
<svg version="1.0" xmlns="http://www.w3.org/2000/svg"
 width="225.000000pt" height="225.000000pt" viewBox="0 0 225.000000 225.000000"
 preserveAspectRatio="xMidYMid meet">

<g transform="translate(0.000000,225.000000) scale(0.100000,-0.100000)"
fill="#000000" stroke="none">
<path d="M107 2231 c4 -14 1 -21 -10 -21 -8 0 -20 -7 -27 -15 -10 -12 -9 -15
6 -15 15 0 16 -2 5 -9 -9 -6 -12 -19 -7 -43 7 -36 -15 -114 -30 -111 -5 1 -17
5 -27 8 -17 7 -18 -12 -15 -379 l3 -386 22 -15 c28 -20 29 -32 3 -40 -11 -3
-20 -14 -20 -23 1 -15 2 -15 13 -2 7 8 19 16 27 18 18 4 130 71 130 78 0 3 -8
0 -18 -5 -13 -7 -23 -6 -32 2 -10 8 -10 6 0 -7 14 -18 13 -19 -3 -13 -12 5
-16 3 -11 -4 4 -7 1 -10 -7 -7 -8 3 -23 -2 -33 -11 -14 -11 -17 -12 -11 -2 5
9 4 12 -3 7 -6 -3 -16 3 -23 15 -9 18 -9 25 3 33 8 6 17 19 21 30 5 13 14 17
28 13 18 -5 20 -2 15 16 -4 19 -3 20 7 7 8 -11 32 -16 71 -18 32 -1 62 -4 66
-7 12 -7 70 25 70 40 0 17 -22 34 -50 38 -23 4 -50 31 -50 51 0 6 7 0 16 -12
8 -12 25 -22 37 -22 28 0 38 -8 61 -44 17 -27 20 -28 31 -12 7 10 17 17 22 17
16 0 1 44 -23 70 -33 34 -30 44 5 18 17 -12 39 -19 56 -17 27 3 27 3 9 25 -11
12 -25 23 -33 25 -8 2 -22 9 -30 15 -60 47 -58 45 -31 38 14 -3 33 -8 43 -10
43 -10 57 -17 51 -27 -4 -6 1 -6 14 1 32 17 35 29 10 36 -23 7 -68 43 -68 55
0 3 15 11 33 18 34 12 38 21 38 77 -1 36 12 45 58 39 35 -5 35 -4 -19 26 -30
16 -67 35 -81 42 -15 6 -31 26 -38 45 -9 23 -19 33 -33 33 -14 0 -18 5 -14 15
3 8 2 15 -3 15 -12 0 -41 -35 -41 -50 0 -8 -18 4 -40 25 -38 37 -39 41 -23 53
15 11 16 14 3 22 -8 5 -12 12 -8 15 3 4 -3 16 -14 27 -18 18 -21 18 -38 3 -17
-15 -19 -14 -41 21 -12 20 -22 42 -21 48 0 6 1 35 3 64 2 54 14 75 30 51 8
-12 10 -12 18 0 7 11 9 11 14 0 3 -8 6 -2 6 14 1 15 0 27 -1 27 -77 12 -77 12
-71 -9z m-47 -393 c0 -6 -7 -5 -15 2 -8 7 -15 17 -15 22 0 6 7 5 15 -2 8 -7
15 -17 15 -22z m205 22 c3 -5 2 -10 -4 -10 -5 0 -13 5 -16 10 -3 6 -2 10 4 10
5 0 13 -4 16 -10z m-144 -17 c13 -16 12 -17 -3 -4 -17 13 -22 21 -14 21 2 0
10 -8 17 -17z m245 -80 c-8 -15 -15 -22 -16 -15 0 17 20 55 27 49 2 -3 -2 -18
-11 -34z m-21 -80 l-8 -28 -12 30 c-10 22 -10 32 -2 37 19 12 30 -8 22 -39z
m-115 -23 c0 -5 -2 -10 -4 -10 -3 0 -8 5 -11 10 -3 6 -1 10 4 10 6 0 11 -4 11
-10z m91 -200 c8 0 22 -12 32 -25 l17 -24 -28 12 c-16 7 -42 28 -58 47 -25 31
-25 33 -3 13 14 -13 32 -23 40 -23z m-117 -28 c3 -5 -1 -9 -9 -9 -8 0 -15 4
-15 9 0 4 4 8 9 8 6 0 12 -4 15 -8z m-39 -22 c3 -5 2 -10 -4 -10 -5 0 -13 5
-16 10 -3 6 -2 10 4 10 5 0 13 -4 16 -10z"/>
<path d="M1984 2235 c-7 -17 4 -37 16 -30 5 3 11 -4 15 -15 3 -11 11 -20 17
-20 5 0 7 7 4 16 -3 9 -6 26 -6 38 0 25 -38 34 -46 11z"/>
<path d="M2055 2203 c2 -27 4 -50 5 -52 0 -2 6 2 14 9 8 6 12 19 9 27 -5 12
-2 15 8 11 9 -4 20 2 27 13 7 10 19 19 27 19 8 0 15 4 15 9 0 5 -14 4 -32 -2
-24 -9 -32 -9 -35 1 -3 6 -13 12 -24 12 -16 0 -18 -6 -14 -47z"/>
<path d="M2178 2229 c-2 -19 -9 -24 -30 -23 -16 1 -28 -2 -28 -6 0 -4 -11 -23
-24 -43 -13 -19 -22 -37 -20 -40 2 -2 -3 -4 -11 -4 -8 0 -15 4 -15 9 0 4 -4 8
-10 8 -19 0 -10 -45 13 -60 12 -8 26 -14 31 -15 14 0 25 -40 15 -56 -7 -11 -9
-9 -9 9 0 13 -6 22 -15 22 -8 0 -15 5 -15 10 0 6 -5 10 -11 10 -6 0 -8 -9 -3
-22 9 -32 14 -35 24 -18 8 13 10 12 10 -3 0 -9 6 -26 13 -38 10 -17 9 -22 -7
-35 -11 -8 -15 -14 -10 -14 6 0 20 9 32 20 26 25 44 26 40 3 -2 -12 4 -18 17
-18 14 0 19 -6 17 -19 -2 -12 1 -16 9 -10 8 4 10 3 5 -4 -4 -6 -14 -8 -23 -5
-13 5 -14 3 -5 -12 6 -12 7 -28 1 -42 -8 -21 6 -83 19 -83 3 0 14 7 24 17 10
9 18 11 18 5 0 -6 3 -19 7 -29 6 -16 5 -16 -10 -4 -14 11 -20 11 -33 0 -13
-11 -17 -10 -25 3 -14 26 -39 48 -52 47 -9 0 -8 -2 1 -6 12 -5 18 -43 6 -43
-3 0 -15 10 -26 23 -11 12 -17 17 -13 10 3 -7 -2 -29 -11 -50 -10 -21 -16 -41
-16 -45 1 -5 -3 -8 -9 -8 -6 0 -8 8 -4 19 3 12 0 21 -10 25 -13 5 -16 0 -13
-24 2 -20 -3 -34 -17 -44 -20 -15 -19 -15 3 -9 17 4 22 1 22 -13 0 -11 -4 -25
-9 -32 -6 -10 -10 -10 -21 2 -7 9 -16 14 -20 11 -15 -9 -22 15 -9 31 19 23 -2
35 -31 18 -25 -15 -25 -15 -1 -8 17 4 22 3 19 -7 -3 -8 -13 -13 -22 -13 -13 2
-14 -1 -5 -12 10 -12 9 -13 -4 -8 -19 7 -51 -21 -42 -36 7 -12 -12 -40 -27
-40 -5 0 -6 6 -2 13 5 9 4 9 -6 0 -11 -10 -11 -15 1 -29 13 -16 12 -16 -8 -4
-12 8 -19 18 -17 22 3 4 0 8 -5 8 -17 0 -13 -21 6 -35 13 -9 13 -14 3 -20 -9
-5 -11 -4 -6 3 4 7 2 12 -3 12 -6 0 -11 -7 -11 -15 0 -10 10 -15 30 -15 19 0
30 5 30 14 0 7 9 25 20 38 10 14 16 28 13 32 -3 3 -1 6 6 6 8 0 10 8 6 23 -5
16 -4 18 4 8 8 -12 12 -12 25 -2 20 17 22 -2 2 -21 -22 -23 -48 -78 -34 -73 7
3 22 -9 33 -26 11 -17 37 -39 57 -50 45 -23 155 -31 162 -12 3 7 16 13 30 13
16 0 27 7 31 21 4 11 9 18 12 16 11 -11 -18 -46 -47 -55 -34 -12 -44 -48 -10
-39 17 4 19 1 14 -18 -4 -15 0 -26 9 -32 8 -4 16 -17 18 -27 2 -11 10 -21 17
-24 9 -3 12 44 12 213 0 151 -3 214 -11 210 -6 -4 -8 -12 -6 -19 3 -7 -4 -13
-14 -13 -15 -1 -17 2 -10 16 6 10 17 23 25 31 12 9 16 32 16 86 0 67 -10 94
-23 62 -3 -8 -6 -6 -6 5 -1 25 -21 21 -22 -5 0 -22 -1 -22 -8 -3 -9 22 11 41
31 29 8 -5 9 -2 5 10 -4 10 -7 21 -7 26 0 4 -9 10 -20 13 -22 6 -27 27 -7 27
17 0 43 -29 50 -55 2 -11 5 65 6 169 1 184 1 188 -17 166 l-19 -23 -16 22 -15
23 -4 -23z m-48 -96 c-1 -20 -27 -59 -35 -51 -5 5 23 68 31 68 2 0 4 -8 4 -17z
m80 -113 c-7 -13 -7 -20 0 -20 5 0 10 -4 10 -10 0 -5 -7 -10 -15 -10 -8 0 -15
9 -15 20 0 11 -7 20 -15 20 -18 0 -20 16 -4 26 6 3 15 1 19 -6 5 -8 11 -1 16
21 8 33 8 33 12 7 2 -15 -2 -36 -8 -48z m-80 -24 c0 -3 -4 -8 -10 -11 -5 -3
-10 -1 -10 4 0 6 5 11 10 11 6 0 10 -2 10 -4z m47 -353 c3 -11 -103 -6 -124 6
-13 8 1 9 52 6 39 -2 71 -7 72 -12z m-42 -53 c-3 -5 -10 -10 -16 -10 -5 0 -9
5 -9 10 0 6 7 10 16 10 8 0 12 -4 9 -10z m-135 -24 c0 -3 -4 -8 -10 -11 -5 -3
-10 -1 -10 4 0 6 5 11 10 11 6 0 10 -2 10 -4z m180 -20 c0 -9 -15 -15 -45 -18
-27 -2 -44 1 -42 7 3 8 18 13 80 24 4 0 7 -5 7 -13z m-220 -6 c0 -5 -7 -10
-16 -10 -8 0 -12 5 -9 10 3 6 10 10 16 10 5 0 9 -4 9 -10z m95 -19 c-6 -6 -32
-19 -58 -30 -43 -18 -48 -19 -45 -5 2 10 15 18 30 20 15 1 35 7 45 13 23 13
40 14 28 2z m105 -21 c0 -5 -7 -10 -15 -10 -8 0 -15 5 -15 10 0 6 7 10 15 10
8 0 15 -4 15 -10z m-80 -60 c0 -5 -4 -10 -9 -10 -6 0 -13 5 -16 10 -3 6 1 10
9 10 9 0 16 -4 16 -10z"/>
<path d="M1964 2136 c-13 -14 0 -46 18 -46 9 0 9 3 0 12 -7 7 -12 17 -12 22 0
6 5 5 12 -2 19 -19 29 -14 16 8 -15 23 -19 24 -34 6z"/>
<path d="M294 1968 c-11 -13 -18 -33 -16 -44 3 -20 5 -20 38 9 18 17 34 37 34
44 0 21 -35 15 -56 -9z"/>
<path d="M2060 1973 c0 -14 19 -38 25 -32 8 8 -5 39 -16 39 -5 0 -9 -3 -9 -7z"/>
<path d="M723 1948 c-4 -7 -15 -13 -23 -13 -22 0 -32 -83 -14 -112 18 -29 18
-73 0 -73 -25 0 -145 -75 -155 -98 -7 -14 -8 -68 -4 -150 5 -107 9 -129 25
-140 10 -7 18 -22 18 -34 0 -18 -4 -20 -31 -14 l-30 6 5 -83 c22 -355 27 -380
72 -391 29 -8 31 -34 9 -97 -9 -24 -13 -49 -11 -55 3 -7 26 -14 52 -16 l48 -3
3 -85 c1 -47 13 -127 26 -180 21 -82 27 -95 48 -100 l24 -6 -23 -13 c-17 -9
-21 -17 -16 -36 6 -26 -10 -36 -19 -12 -3 6 -6 7 -6 1 -1 -6 -14 -9 -31 -6
-32 5 -32 22 1 22 10 0 19 5 19 11 0 7 -11 8 -32 3 -18 -4 -43 -8 -55 -8 -13
0 -23 -4 -23 -8 0 -4 5 -8 10 -8 6 0 10 -5 10 -10 0 -7 -8 -6 -22 1 -21 11
-22 11 -9 -5 8 -9 11 -19 7 -23 -3 -3 -6 -1 -6 6 0 7 -4 10 -9 6 -5 -3 -12 -1
-16 5 -4 6 -11 8 -16 5 -9 -6 -13 12 -11 50 0 11 -2 14 -4 7 -3 -6 -10 -10
-14 -7 -5 3 -12 0 -16 -6 -5 -8 -3 -9 6 -4 10 6 11 2 6 -19 -6 -23 -3 -29 14
-33 11 -3 20 -12 20 -20 0 -13 3 -13 15 -3 12 10 15 9 15 -6 0 -16 2 -17 10
-4 5 8 10 11 10 5 0 -5 5 -3 10 5 5 8 10 10 10 4 0 -20 -28 -36 -50 -29 -13 4
-20 2 -20 -8 0 -9 9 -12 30 -9 23 3 30 0 30 -13 0 -12 5 -15 16 -11 9 3 18 6
20 6 2 0 4 5 4 11 0 5 -4 8 -8 5 -4 -2 -14 -1 -22 4 -13 8 -12 11 4 23 12 9
16 19 11 28 -5 8 3 4 17 -9 15 -14 31 -20 42 -16 12 5 15 2 10 -10 -3 -9 -1
-16 5 -16 6 0 10 3 9 8 -2 4 5 18 15 32 l17 24 0 -46 c0 -50 -11 -66 -29 -44
-12 15 -61 10 -61 -6 0 -7 -18 -8 -47 -4 -27 4 -54 7 -60 8 -7 1 -13 5 -13 10
0 12 -48 10 -72 -3 -16 -8 -19 -8 -16 2 2 7 12 13 22 15 26 4 33 14 16 24 -10
7 -11 10 -2 10 6 0 12 4 12 10 0 5 -7 6 -17 3 -11 -4 -14 -3 -9 5 5 8 2 10 -8
6 -9 -3 -16 -12 -16 -18 0 -7 -8 -13 -17 -14 -25 -1 -73 18 -73 29 0 5 -6 8
-12 7 -7 -2 -12 3 -10 10 2 13 0 14 -42 17 -26 2 -45 -14 -140 -112 -61 -63
-112 -119 -114 -124 -2 -5 96 -9 232 -9 205 0 235 2 230 15 -4 10 0 15 11 15
11 0 15 -5 11 -15 -5 -13 26 -15 238 -15 186 0 245 3 249 13 4 9 7 9 18 -1 7
-6 17 -12 21 -12 11 0 -11 42 -26 52 -8 6 -8 8 0 8 6 0 14 14 18 30 3 19 12
30 22 30 10 0 14 -5 11 -14 -6 -15 29 -33 40 -22 4 3 -2 6 -13 6 -16 0 -16 2
-4 10 13 8 12 11 -5 25 -11 8 -28 13 -37 11 -24 -6 -54 39 -72 105 -8 30 -17
61 -21 70 -3 9 1 56 10 104 9 48 14 96 12 106 -3 11 -1 19 4 19 17 0 31 80 21
126 -10 45 -10 45 20 51 16 3 32 11 34 18 3 6 -2 59 -11 116 -9 57 -20 140
-25 184 -5 44 -12 98 -17 120 -10 45 -5 155 6 155 10 0 111 -225 111 -245 0
-8 -6 -15 -13 -15 -15 0 -21 -87 -8 -108 5 -8 24 -15 42 -17 19 -2 55 -7 81
-11 l48 -7 20 44 20 44 -5 -38 c-4 -21 -2 -44 4 -51 6 -7 7 -26 1 -51 -11 -44
-13 -266 -4 -312 3 -16 15 -33 27 -38 21 -9 22 -17 23 -125 1 -63 7 -135 14
-159 8 -31 8 -47 1 -54 -8 -8 -11 -8 -11 1 0 7 -4 12 -9 12 -6 0 -3 -12 5 -28
14 -27 13 -27 -18 -30 -17 -2 -41 -10 -52 -19 -20 -14 -18 -15 29 -9 30 3 45
2 36 -3 -11 -7 -11 -9 0 -14 8 -3 -5 -3 -28 0 -38 5 -44 3 -51 -18 -9 -24 11
-59 26 -45 3 4 0 11 -7 16 -12 7 -11 11 3 26 17 16 17 16 14 -2 -2 -13 2 -18
14 -16 9 1 19 -2 23 -8 3 -5 -1 -10 -9 -10 -8 0 -17 -4 -21 -9 -3 -6 78 -9
202 -9 122 0 198 3 183 8 -21 7 -22 8 -5 9 19 2 19 2 2 15 -11 9 -33 13 -54
10 -31 -4 -34 -3 -23 11 7 8 20 15 29 15 9 1 3 7 -14 14 -16 7 -33 11 -37 9
-5 -2 -8 1 -8 6 0 6 6 11 13 11 6 1 26 12 42 26 l30 26 -32 -16 c-43 -22 -42
-13 2 14 19 12 35 28 35 36 0 21 16 17 26 -7 9 -20 11 -19 21 15 6 20 7 34 2
30 -5 -3 -9 -13 -9 -22 -1 -15 -2 -15 -11 2 -9 14 -8 21 2 28 10 6 6 7 -11 3
-14 -4 -29 -12 -35 -17 -6 -6 -4 -7 8 -3 29 12 19 -3 -20 -30 -40 -26 -63 -32
-63 -14 0 5 6 7 13 4 6 -4 4 0 -5 8 -10 8 -18 19 -18 26 0 17 -22 13 -50 -9
-14 -11 -20 -20 -15 -19 27 4 45 -2 45 -15 0 -19 -23 -33 -28 -18 -2 7 -11 12
-20 12 -26 0 -26 88 -2 146 11 25 20 53 20 62 0 9 7 30 15 46 8 16 15 54 15
87 0 45 3 59 15 59 28 0 45 45 51 130 4 71 3 84 -13 96 -17 13 -17 14 -1 8 17
-6 18 6 14 172 -2 99 -5 182 -5 187 -1 4 -9 7 -18 7 -15 0 -15 2 -4 9 12 8 12
13 3 24 -10 11 -7 21 11 49 32 47 29 154 -5 198 -27 34 -56 46 -71 31 -15 -15
-40 -14 -32 2 3 6 -2 2 -11 -10 -16 -22 -52 -34 -39 -13 3 6 -1 7 -9 4 -9 -3
-16 -13 -16 -22 0 -13 -3 -12 -16 4 -8 10 -12 13 -8 5 5 -10 1 -11 -14 -7 -11
4 -23 2 -27 -4 -4 -6 -13 -9 -21 -6 -8 3 -14 1 -14 -5 0 -6 -4 -7 -10 -4 -5 3
-10 -2 -11 -12 -8 -122 -7 -151 2 -169 9 -18 7 -27 -9 -50 -12 -16 -23 -45
-26 -64 -3 -19 -12 -53 -20 -75 -9 -22 -15 -48 -16 -58 0 -33 -90 0 -90 33 0
25 20 27 21 3 0 -10 3 -13 5 -7 3 7 -8 56 -24 110 -16 55 -32 120 -36 145 -7
47 -55 195 -56 170 0 -11 -3 -11 -15 -1 -11 9 -15 9 -15 1 0 -7 -4 -9 -10 -6
-6 3 -10 -4 -10 -17 0 -18 -2 -20 -9 -9 -8 12 -12 12 -25 2 -11 -9 -16 -10
-16 -2 0 6 -13 11 -29 11 -28 0 -29 -2 -24 -34 5 -30 2 -34 -22 -40 -33 -8
-48 8 -40 42 4 18 1 22 -19 22 -46 0 -50 32 -13 94 26 46 37 56 60 56 23 0 27
-4 27 -29 0 -33 31 -48 51 -25 9 11 6 16 -12 23 -13 5 -19 10 -14 11 6 0 3 5
-5 10 -13 9 -13 11 0 21 12 8 11 9 -7 4 -18 -5 -21 -2 -19 19 3 22 1 23 -23
15 -14 -5 -46 -7 -71 -6 -25 2 -57 0 -73 -4 -23 -7 -29 -4 -42 21 -15 28 -6
48 14 35 5 -3 12 -1 16 5 3 5 24 10 46 10 30 0 39 -4 39 -17 0 -21 7 -14 12
12 1 11 7 23 12 26 5 4 -7 23 -26 42 -34 34 -35 37 -33 104 2 37 6 78 10 91 7
19 4 22 -23 22 -17 0 -35 -6 -39 -12z m96 -362 c9 -11 8 -15 -5 -20 -16 -6
-33 8 -34 27 0 12 27 8 39 -7z m-259 -17 c0 -6 -4 -7 -10 -4 -5 3 -10 11 -10
16 0 6 5 7 10 4 6 -3 10 -11 10 -16z m198 -19 c1 -2 7 -3 14 -4 18 -2 20 -47
3 -73 -50 -77 -48 -70 -15 -65 28 4 30 2 30 -27 l0 -31 -60 0 c-57 0 -60 1
-60 25 0 14 14 47 31 75 17 28 29 54 25 57 -3 3 -8 -2 -12 -11 -10 -27 -44
-20 -44 9 0 14 -1 28 -2 32 -5 13 76 24 90 13z m-178 -114 c0 -8 -4 -18 -10
-21 -5 -3 -10 3 -10 14 0 12 5 21 10 21 6 0 10 -6 10 -14z m60 -36 c0 -5 -4
-10 -10 -10 -5 0 -10 5 -10 10 0 6 5 10 10 10 6 0 10 -4 10 -10z m780 -30 c0
-11 -4 -20 -10 -20 -5 0 -10 9 -10 20 0 11 5 20 10 20 6 0 10 -9 10 -20z
m-873 -122 c-3 -8 -6 -5 -6 6 -1 11 2 17 5 13 3 -3 4 -12 1 -19z m267 -43 c-4
-8 -8 -15 -10 -15 -2 0 -4 7 -4 15 0 8 4 15 10 15 5 0 7 -7 4 -15z m-198 -52
c-3 -27 -7 -71 -8 -100 -2 -29 -6 -49 -10 -45 -9 10 -12 131 -3 165 12 46 27
31 21 -20z m366 -1 c34 -31 34 -53 -1 -71 -16 -9 -25 -6 -50 15 -33 27 -39 52
-19 72 18 18 35 15 70 -16z m473 -25 c6 0 15 2 20 3 29 7 65 -1 65 -15 0 -12
-13 -15 -62 -14 -35 1 -72 -2 -82 -6 -14 -6 -17 -5 -12 3 5 8 2 10 -8 6 -12
-4 -16 0 -16 16 0 20 3 21 43 14 23 -4 47 -7 52 -7z m9 -53 c16 -15 23 -94 9
-94 -32 1 -58 110 -27 110 1 0 10 -7 18 -16z m-734 -39 c20 -24 -2 -41 -24
-20 -9 9 -16 21 -16 26 0 14 26 10 40 -6z m25 -75 c3 -6 -1 -7 -9 -4 -18 7
-21 14 -7 14 6 0 13 -4 16 -10z m655 -40 c0 -5 -4 -10 -10 -10 -5 0 -10 5 -10
10 0 6 5 10 10 10 6 0 10 -4 10 -10z m20 -54 c0 -3 -4 -8 -10 -11 -5 -3 -10
-1 -10 4 0 6 5 11 10 11 6 0 10 -2 10 -4z m-546 -241 c1 -66 4 -89 14 -88 6 2
12 -2 12 -7 0 -5 -4 -10 -9 -10 -5 0 -11 -44 -13 -97 -3 -65 -10 -108 -21
-128 -9 -16 -17 -41 -17 -55 -1 -19 -3 -21 -9 -10 -15 26 -30 160 -33 298 -2
109 0 134 12 142 8 5 15 22 16 37 0 15 2 57 3 93 l3 65 21 -75 c13 -48 21
-107 21 -165z m486 55 c0 -5 -4 -10 -10 -10 -5 0 -10 5 -10 10 0 6 5 10 10 10
6 0 10 -4 10 -10z m-580 -161 c0 -24 -23 -21 -28 4 -2 10 3 17 12 17 10 0 16
-9 16 -21z m785 -309 c3 -5 1 -10 -4 -10 -6 0 -11 5 -11 10 0 6 2 10 4 10 3 0
8 -4 11 -10z m-1305 -41 c0 -12 -27 -11 -35 1 -11 17 5 32 21 19 8 -6 14 -15
14 -20z m96 -1 c4 -7 3 -8 -4 -4 -7 4 -12 2 -12 -3 0 -6 -5 -11 -11 -11 -8 0
-8 5 1 15 15 18 17 18 26 3z m525 -2 c13 8 11 -8 -4 -26 -13 -17 -72 -26 -62
-10 3 6 17 10 30 10 19 0 22 4 19 23 -2 12 -2 16 2 9 3 -6 10 -10 15 -6z m719
-42 c0 -2 -7 -4 -15 -4 -8 0 -15 4 -15 10 0 5 7 7 15 4 8 -4 15 -8 15 -10z
m-570 -8 c0 -8 -4 -18 -10 -21 -5 -3 -10 3 -10 14 0 12 5 21 10 21 6 0 10 -6
10 -14z m-155 -35 c-8 -17 -18 -31 -21 -31 -3 0 -4 3 -2 8 21 43 32 61 35 58
3 -2 -3 -18 -12 -35z m-495 9 c0 -23 -10 -26 -28 -8 -18 18 -15 28 8 28 13 0
20 -7 20 -20z m356 -5 c4 -15 -1 -33 -13 -49 -19 -27 -33 -33 -33 -14 0 6 -7
19 -15 28 -12 14 -13 19 -1 36 20 29 55 28 62 -1z m-186 5 c0 -5 -2 -10 -4
-10 -3 0 -8 5 -11 10 -3 6 -1 10 4 10 6 0 11 -4 11 -10z m984 -3 c-3 -10 5
-12 31 -9 21 3 35 0 35 -7 0 -6 -5 -10 -12 -8 -11 2 -13 -3 -17 -35 0 -6 -4
-8 -8 -5 -3 4 -12 2 -20 -5 -7 -6 -16 -8 -19 -5 -3 3 4 10 15 17 27 14 27 30
1 23 -16 -4 -20 0 -20 21 0 14 4 26 10 26 5 0 7 -6 4 -13z m-1054 -47 c0 -5
-2 -10 -4 -10 -3 0 -8 5 -11 10 -3 6 -1 10 4 10 6 0 11 -4 11 -10z m-81 -27
c2 -2 -5 -3 -17 -3 -14 0 -22 6 -22 16 0 14 3 15 18 3 9 -7 19 -15 21 -16z
m1241 7 c8 -5 11 -10 5 -10 -5 0 -17 5 -25 10 -8 5 -10 10 -5 10 6 0 17 -5 25
-10z"/>
<path d="M2087 1893 c6 -15 13 -16 31 -4 10 6 7 10 -11 13 -18 4 -24 1 -20 -9z"/>
<path d="M2005 1750 c-3 -5 0 -7 8 -4 9 3 21 -4 30 -16 9 -13 17 -17 22 -11 3
6 3 11 -1 11 -3 0 -1 7 6 15 9 10 9 15 1 15 -6 0 -11 -5 -11 -10 0 -7 -6 -7
-19 0 -24 12 -28 13 -36 0z"/>
<path d="M1895 1650 c-3 -5 -1 -10 4 -10 6 0 11 5 11 10 0 6 -2 10 -4 10 -3 0
-8 -4 -11 -10z"/>
<path d="M1866 1613 c-6 -14 -5 -15 5 -6 7 7 10 15 7 18 -3 3 -9 -2 -12 -12z"/>
<path d="M1355 1460 c-3 -6 1 -7 9 -4 18 7 21 14 7 14 -6 0 -13 -4 -16 -10z"/>
<path d="M284 1314 c-18 -14 -18 -15 4 -4 12 6 22 13 22 15 0 8 -5 6 -26 -11z"/>
<path d="M210 1299 l-25 -20 33 16 c17 8 32 18 32 20 0 10 -16 4 -40 -16z"/>
<path d="M204 1264 c-18 -14 -18 -15 4 -4 12 6 22 13 22 15 0 8 -5 6 -26 -11z"/>
<path d="M10 1230 c0 -5 5 -10 10 -10 6 0 10 5 10 10 0 6 -4 10 -10 10 -5 0
-10 -4 -10 -10z"/>
<path d="M2164 1211 c7 -11 46 -35 46 -28 0 3 -12 12 -26 22 -15 9 -23 12 -20
6z"/>
<path d="M94 1194 c-18 -14 -18 -15 4 -4 12 6 22 13 22 15 0 8 -5 6 -26 -11z"/>
<path d="M2227 1169 c7 -7 15 -10 18 -7 3 3 -2 9 -12 12 -14 6 -15 5 -6 -5z"/>
<path d="M1973 1045 c0 -33 2 -45 4 -27 2 18 2 45 0 60 -2 15 -4 0 -4 -33z"/>
<path d="M2042 1000 c0 -19 2 -27 5 -17 2 9 2 25 0 35 -3 9 -5 1 -5 -18z"/>
<path d="M293 975 c0 -27 2 -38 4 -22 2 15 2 37 0 50 -2 12 -4 0 -4 -28z"/>
<path d="M510 903 c0 -126 -14 -145 -28 -37 l-8 59 -7 -54 c-7 -62 -11 -68
-31 -52 -11 9 -15 9 -19 -1 -3 -7 -6 5 -8 27 -1 33 -3 29 -9 -23 -12 -104 -45
-114 -42 -13 2 56 1 59 -20 53 -18 -4 -20 -2 -14 14 6 15 4 16 -5 7 -14 -14
-4 -47 11 -38 5 3 10 1 10 -5 0 -7 -7 -10 -15 -7 -11 5 -15 -8 -18 -66 -3 -69
-3 -69 -5 20 -2 75 -5 91 -16 87 -9 -3 -20 5 -30 23 l-15 28 -1 -32 c0 -17 4
-43 10 -58 6 -16 6 -24 0 -20 -6 4 -8 -41 -6 -122 4 -117 3 -121 -4 -38 -4 50
-8 133 -9 185 -2 94 -2 95 -16 56 -7 -21 -17 -42 -22 -45 -4 -3 -8 -26 -8 -49
0 -24 -3 -46 -7 -49 -15 -9 -8 -51 18 -98 27 -52 26 -75 -5 -75 -18 0 -21 -8
-24 -87 l-3 -88 -2 91 c-2 77 -5 94 -22 109 -11 10 -20 27 -20 37 0 22 18 60
33 70 7 4 6 12 -2 22 -7 8 -10 20 -7 25 4 5 2 12 -4 16 -5 3 -10 11 -10 17 0
7 5 6 14 -1 8 -7 17 -8 20 -3 3 5 -6 14 -20 21 -15 6 -23 7 -19 1 3 -5 1 -10
-5 -10 -26 0 -33 -59 -33 -260 l1 -205 -10 210 c-12 261 -10 246 -23 242 -9
-3 -11 -11 -14 -59 -1 -10 -8 -18 -16 -18 -13 0 -15 -32 -15 -226 l0 -226 63
49 c62 50 81 64 320 247 l127 97 0 185 c0 101 -2 184 -5 184 -3 0 -5 -53 -5
-117z m-223 -69 c-3 -3 -12 -4 -19 -1 -8 3 -5 6 6 6 11 1 17 -2 13 -5z m190
-76 c-3 -8 -6 -5 -6 6 -1 11 2 17 5 13 3 -3 4 -12 1 -19z m-100 -161 c-2 -23
-3 -1 -3 48 0 50 1 68 3 42 2 -26 2 -67 0 -90z m53 83 c0 -5 -4 -10 -10 -10
-5 0 -10 5 -10 10 0 6 5 10 10 10 6 0 10 -4 10 -10z m-113 -77 c-3 -10 -5 -2
-5 17 0 19 2 27 5 18 2 -10 2 -26 0 -35z m88 -2 c3 -5 1 -12 -5 -16 -5 -3 -10
1 -10 9 0 18 6 21 15 7z m-164 -87 c-9 -28 -9 -29 -10 -3 -1 14 2 29 6 32 11
12 13 2 4 -29z m-171 -74 c0 -5 -7 -10 -15 -10 -8 0 -15 5 -15 10 0 6 7 10 15
10 8 0 15 -4 15 -10z"/>
<path d="M1956 972 c7 -4 14 -18 17 -32 4 -21 4 -20 6 8 1 24 -3 32 -16 32
-12 0 -14 -3 -7 -8z"/>
<path d="M471 954 c0 -11 3 -14 6 -6 3 7 2 16 -1 19 -3 4 -6 -2 -5 -13z"/>
<path d="M2029 952 c-19 -4 -31 -66 -15 -82 6 -6 4 -12 -7 -15 -9 -4 -13 -13
-10 -22 4 -11 2 -14 -5 -9 -7 4 -13 15 -13 24 -1 9 -5 4 -9 -13 -4 -16 -9 -95
-11 -175 l-3 -145 -5 145 c-3 80 -3 147 2 148 4 2 7 24 7 50 0 54 -12 50 -14
-5 -1 -33 -4 -38 -24 -36 -21 3 -23 -1 -22 -45 0 -26 -3 -90 -8 -142 l-9 -95
-1 79 c-2 91 -17 142 -44 149 -10 3 -18 1 -18 -4 0 -17 -22 -9 -27 10 -6 25
-41 34 -46 12 -3 -10 -5 -8 -6 7 0 13 -5 20 -11 17 -6 -4 -10 -54 -10 -118 l1
-112 92 -62 c51 -34 105 -67 121 -73 17 -6 36 -19 43 -30 7 -10 72 -59 143
-109 l130 -90 0 300 c0 221 -3 298 -11 293 -7 -4 -10 -1 -7 7 2 7 -6 25 -19
39 -13 14 -23 30 -23 37 0 7 -4 13 -10 13 -5 0 -7 -7 -4 -15 4 -8 3 -15 0 -15
-4 0 -11 10 -16 23 l-9 22 0 -24 c-1 -13 -4 -21 -8 -17 -4 4 -6 26 -5 49 l2
42 -14 -35 c-7 -19 -12 -59 -12 -88 1 -31 -3 -51 -9 -48 -5 2 -9 17 -9 35 1
17 -2 31 -7 31 -4 0 -6 7 -3 15 4 10 0 15 -14 15 -16 0 -21 7 -24 33 -2 24 -7
32 -19 29z m10 -39 c-1 -10 -1 -48 0 -85 1 -58 4 -68 19 -68 16 -1 16 -1 -1
-14 -15 -11 -19 -34 -24 -120 -5 -94 -4 -106 10 -106 10 0 17 -4 17 -10 0 -5
-7 -10 -15 -10 -9 0 -15 -9 -15 -25 0 -14 -5 -25 -10 -25 -6 0 -8 11 -4 25 4
17 2 25 -7 25 -11 0 -11 2 -1 8 10 7 13 59 15 215 1 114 6 207 10 207 5 0 7
-8 6 -17z m-52 -128 c0 -8 -4 -15 -9 -15 -10 0 -11 14 -1 23 9 10 10 9 10 -8z
m208 -25 c3 -6 -1 -7 -9 -4 -18 7 -21 14 -7 14 6 0 13 -4 16 -10z m-78 -283
c-1 -45 -3 -5 -3 88 0 94 2 130 3 82 2 -48 2 -125 0 -170z m-117 203 c0 -5 -4
-10 -10 -10 -5 0 -10 5 -10 10 0 6 5 10 10 10 6 0 10 -4 10 -10z m197 -317
c-1 -49 -3 -9 -3 87 0 96 2 136 3 88 2 -49 2 -127 0 -175z m-359 174 c-7 -14
-13 -17 -16 -9 -6 19 6 44 18 37 7 -4 6 -14 -2 -28z m342 -133 c0 -2 -7 -4
-15 -4 -8 0 -15 4 -15 10 0 5 7 7 15 4 8 -4 15 -8 15 -10z"/>
<path d="M311 914 c0 -11 3 -14 6 -6 3 7 2 16 -1 19 -3 4 -6 -2 -5 -13z"/>
<path d="M1773 865 c0 -38 2 -53 4 -32 2 20 2 52 0 70 -2 17 -4 1 -4 -38z"/>
<path d="M2200 898 c0 -18 5 -28 15 -28 8 0 15 -4 15 -10 0 -5 5 -10 10 -10 6
0 10 7 10 16 0 8 -4 13 -10 9 -5 -3 -16 7 -24 22 l-15 28 -1 -27z"/>
<path d="M80 869 c0 -5 5 -7 10 -4 6 3 10 8 10 11 0 2 -4 4 -10 4 -5 0 -10 -5
-10 -11z"/>
<path d="M1840 795 c0 -8 4 -15 10 -15 5 0 7 7 4 15 -4 8 -8 15 -10 15 -2 0
-4 -7 -4 -15z"/>
<path d="M522 577 l-2 -59 -112 -120 c-62 -66 -114 -123 -115 -126 -2 -4 13
-7 32 -8 24 0 35 4 35 13 0 8 4 12 9 9 5 -3 12 1 15 10 4 9 2 13 -5 8 -7 -4
-10 -1 -7 7 3 8 11 13 17 12 6 -2 10 1 8 6 -3 13 99 146 140 181 18 17 29 30
24 30 -5 0 -13 -6 -18 -12 -5 -8 -10 11 -14 47 l-6 60 -1 -58z"/>
<path d="M606 612 c-2 -4 0 -14 6 -22 8 -12 9 -12 5 2 -3 9 -1 19 6 22 9 3 9
5 0 5 -6 1 -14 -3 -17 -7z"/>
<path d="M546 571 c-3 -5 1 -11 9 -14 9 -4 12 -1 8 9 -6 16 -10 17 -17 5z"/>
<path d="M1713 480 c0 -25 2 -35 4 -22 2 12 2 32 0 45 -2 12 -4 2 -4 -23z"/>
<path d="M1730 415 c8 -11 34 -42 57 -70 24 -27 43 -56 43 -64 0 -8 3 -11 6
-8 10 9 54 -45 54 -65 0 -10 5 -18 10 -18 6 0 10 -7 10 -15 0 -8 6 -12 14 -9
10 4 13 0 10 -13 -6 -23 11 -40 46 -45 19 -2 25 -9 25 -28 0 -16 -5 -24 -14
-22 -7 2 -1 -11 15 -28 27 -28 33 -30 104 -30 l75 1 -45 41 c-25 23 -108 101
-185 173 -178 167 -244 225 -225 200z"/>
<path d="M554 286 c1 -14 5 -29 9 -32 3 -3 4 6 3 20 -2 15 -6 29 -9 32 -3 4
-5 -6 -3 -20z"/>
<path d="M680 300 c-13 -8 -12 -10 3 -10 9 0 17 5 17 10 0 12 -1 12 -20 0z"/>
<path d="M1515 230 c3 -5 8 -10 11 -10 2 0 4 5 4 10 0 6 -5 10 -11 10 -5 0 -7
-4 -4 -10z"/>
<path d="M1860 231 c0 -5 5 -13 10 -16 6 -3 10 -2 10 4 0 5 -4 13 -10 16 -5 3
-10 2 -10 -4z"/>
<path d="M1027 191 c3 -12 9 -21 14 -21 14 0 11 16 -5 29 -12 10 -13 8 -9 -8z"/>
<path d="M1747 194 c-3 -3 -3 -12 0 -20 4 -10 8 -11 18 -1 7 7 11 15 8 20 -5
9 -17 9 -26 1z"/>
<path d="M1666 103 c-6 -14 -5 -15 5 -6 7 7 10 15 7 18 -3 3 -9 -2 -12 -12z"/>
<path d="M1635 100 c3 -5 8 -10 11 -10 2 0 4 5 4 10 0 6 -5 10 -11 10 -5 0 -7
-4 -4 -10z"/>
<path d="M1890 71 c0 -6 4 -13 10 -16 6 -3 7 1 4 9 -7 18 -14 21 -14 7z"/>
</g>
</svg>
